<svg xmlns="http://www.w3.org/2000/svg" width="608" height="453" xmlns:xlink="http://www.w3.org/1999/xlink"><defs><filter id="a" width="101%" height="103.1%" x="-.5%" y="-1.1%" filterUnits="objectBoundingBox"><feOffset dy="2" in="SourceAlpha" result="shadowOffsetOuter1"/><feGaussianBlur stdDeviation="2" in="shadowOffsetOuter1" result="shadowBlurOuter1"/><feColorMatrix values="0 0 0 0 0 0 0 0 0 0 0 0 0 0 0 0 0 0 0.5 0" in="shadowBlurOuter1" result="shadowMatrixOuter1"/><feMerge><feMergeNode in="shadowMatrixOuter1"/><feMergeNode in="SourceGraphic"/></feMerge></filter><ellipse id="b" cx="300.696" cy="297.383" rx="300.696" ry="297.383"/></defs><g fill="none" fill-rule="evenodd" transform="translate(3 -86)" filter="url(#a)" opacity=".04"><mask id="c" fill="#fff"><use xlink:href="#b"/></mask><path fill="#0E0E0E" d="M339.968-.718C488.374 17.347 604.711 146.183 602.681 297.7c-2.249 167.8-137.004 300.225-303.844 298.597C129.86 594.651-5.435 458.591-2.884 292.87-.424 132.854 123.258 7.587 283.306-2.261a283.059 283.059 0 0 1 18.248-2.869c18.028-2.237 36.335-2.277 54.512-3.336.202 2.224.409 4.449.611 6.673-5.607.226-11.177.584-16.709 1.075zm0 0a295.619 295.619 0 0 0-31.757-2.137c-8.39-.113-16.695.088-24.905.593C97.717 33.158-10.689 247.487 91.736 411.21c83.186 132.969 262.949 161.15 373.802 57.83 100.971-94.111 87.734-253-26.723-320.697C346.8 93.915 230 132.99 197.992 228.912c-29.147 87.336 34.54 172.24 121.995 162.626 42.56-4.68 75.72-41.397 73.444-81.34-1.674-29.395-24.398-52.496-49.703-48.554-7.737 1.205-16.58 7.015-20.93 13.38-2.397 3.51 2.191 13.404 5.893 18.938 10.561 15.792 7.552 27.562-10.175 34.751-23.938 9.707-54.367-5.65-64.06-33.621-10.548-30.437-4.58-58.693 16.341-83.106 43.338-50.58 130.9-47.167 179.088 6.543 69.458 77.412 40.693 205.3-57.197 254.318-97.939 49.04-219.785 13.59-278.412-81.006C39.384 271.017 87.067 106.037 217.158 35.907c38.516-20.76 79.512-32.779 122.81-36.625z" mask="url(#c)"/></g></svg>