<svg xmlns="http://www.w3.org/2000/svg" width="608" height="453" viewBox="0 0 608 453" xmlns:xlink="http://www.w3.org/1999/xlink">
  <defs>
    <filter id="a" width="101%" height="103.1%" x="-.5%" y="-1.1%" filterUnits="objectBoundingBox">
      <feOffset dy="2" in="SourceAlpha" result="shadowOffsetOuter1"/>
      <feGaussianBlur stdDeviation="2" in="shadowOffsetOuter1" result="shadowBlurOuter1"/>
      <feColorMatrix values="0 0 0 0 0 0 0 0 0 0 0 0 0 0 0 0 0 0 0.5 0" in="shadowBlurOuter1" result="shadowMatrixOuter1"/>
      <feMerge>
        <feMergeNode in="shadowMatrixOuter1"/>
        <feMergeNode in="SourceGraphic"/>
      </feMerge>
    </filter>
    <ellipse id="b" cx="300.696" cy="297.383" rx="300.696" ry="297.383"/>
  </defs>
  <g fill="none" fill-rule="evenodd" transform="translate(3 -86)" filter="url(#a)" opacity=".04">
    <mask id="c" fill="white">
      <use xlink:href="#b"/>
    </mask>
    <path fill="#0E0E0E" d="M339.968194,-0.71794393 C488.374277,17.3473904 604.711122,146.18304 602.68134,297.69964 C600.43234,465.499481 465.676753,597.925278 298.83693,596.297147 C129.860557,594.651222 -5.43479042,458.591044 -2.88442432,292.868627 C-0.424268776,132.854182 123.258086,7.58699862 283.306011,-2.26158518 C289.30959,-3.40737607 295.393896,-4.36594913 301.554444,-5.12953761 C319.582429,-7.36710608 337.889289,-7.4071421 356.065708,-8.46587231 C356.268118,-6.24164918 356.475026,-4.01742604 356.677436,-1.79320291 C351.070328,-1.5674181 345.500458,-1.20939304 339.968194,-0.71794393 Z M339.968194,-0.71794393 C329.530995,-1.98845439 318.935178,-2.71108179 308.210762,-2.85518391 C299.821128,-2.96826745 291.515727,-2.76677183 283.306011,-2.26158518 C97.7171332,33.1584544 -10.6894332,247.486922 91.7362293,411.209446 C174.922245,544.177953 354.684822,572.35886 465.538036,469.039247 C566.509145,374.927918 553.27153,216.038314 438.815417,148.341859 C346.799828,93.9151186 230.000257,132.990271 197.992488,228.912117 C168.845446,316.248463 232.532631,401.151509 319.987249,391.538416 C362.547326,386.858651 395.706584,350.141175 393.430596,310.198576 C391.757339,280.803243 369.033443,257.702462 343.727694,261.643785 C335.991133,262.849314 327.148065,268.658985 322.798499,275.024711 C320.401065,278.534536 324.989025,288.42788 328.690879,293.961747 C339.252183,309.753732 336.243021,321.52432 318.516403,328.713009 C294.578046,338.419519 264.149074,323.063483 254.455884,295.091653 C243.908073,264.655383 249.87692,236.398853 270.797119,211.985779 C314.13535,161.406945 401.69792,164.818904 449.884996,218.529444 C519.343115,295.941306 490.578403,423.829688 392.688426,472.847117 C294.74897,521.886789 172.902643,486.43712 114.275708,391.84091 C39.3840052,271.016661 87.0673051,106.037135 217.158466,35.9073792 C255.674465,15.1476741 296.669577,3.12841362 339.968194,-0.71794393 Z" mask="url(#c)"/>
  </g>
</svg>
