<svg xmlns="http://www.w3.org/2000/svg" width="14" height="14" viewBox="0 0 14 14">
  <path fill="#C6C6C6" d="M13.853,12.438 L10.249,8.834 C10.174,8.759 10.083,8.707 9.982,8.678 C10.621,7.781 11,6.686 11,5.5 C11,2.463 8.537,0 5.5,0 C2.463,0 0,2.463 0,5.5 C0,8.537 2.463,11 5.5,11 C6.686,11 7.781,10.621 8.68,9.982 C8.708,10.083 8.76,10.173 8.835,10.249 L12.439,13.853 C12.74,14.154 13.297,14.08 13.688,13.688 C14.079,13.297 14.153,12.739 13.853,12.438 Z M5.5,9 C3.568,9 2,7.432 2,5.5 C2,3.568 3.568,2 5.5,2 C7.432,2 9,3.568 9,5.5 C9,7.432 7.432,9 5.5,9 Z" opacity=".75"/>
</svg>
