<svg xmlns="http://www.w3.org/2000/svg" xmlns:xlink="http://www.w3.org/1999/xlink" width="84" height="101"><defs><ellipse id="a" cx="37.487" cy="37.076" rx="37.487" ry="37.076"/></defs><g fill="none" fill-rule="evenodd"><g transform="translate(4)"><mask id="b" fill="#fff"><use xlink:href="#a"/></mask><path fill="#FFDA5C" fill-rule="nonzero" d="M42.383-.09c18.501 2.253 33.004 18.315 32.751 37.205-.28 20.92-17.08 37.43-37.879 37.227C16.189 74.137-.678 57.174-.36 36.512-.053 16.564 15.366.947 35.32-.281a35.286 35.286 0 0 1 2.275-.358c2.247-.278 4.53-.283 6.796-.415l.076.831c-.7.029-1.394.073-2.083.134zm0 0a36.852 36.852 0 0 0-3.96-.266 41.448 41.448 0 0 0-3.104.074C12.182 4.134-1.333 30.855 11.436 51.267c10.371 16.577 32.781 20.09 46.601 7.21 12.588-11.734 10.938-31.543-3.331-39.983C43.234 11.71 28.673 16.58 24.683 28.54 21.05 39.428 28.99 50.013 39.892 48.814c5.306-.583 9.44-5.16 9.156-10.14-.209-3.665-3.042-6.545-6.197-6.054-.964.15-2.067.875-2.609 1.668-.299.438.273 1.671.735 2.361 1.316 1.969.941 3.436-1.269 4.333-2.984 1.21-6.777-.705-7.986-4.192-1.315-3.795-.57-7.317 2.037-10.361 5.403-6.306 16.32-5.88 22.327.816 8.659 9.651 5.073 25.595-7.13 31.706-12.21 6.114-27.4 1.695-34.71-10.099C4.91 33.79 10.854 13.22 27.072 4.477 31.874 1.889 36.985.39 42.382-.09z" mask="url(#b)"/></g><path fill="#534227" fill-rule="nonzero" d="M2.49 93.83c-.754-.288-1.283-.585-1.588-.89h.012C.304 92.325 0 91.599 0 90.765c0-.609.162-1.16.487-1.653a4.408 4.408 0 0 1 1.269-1.257 6.367 6.367 0 0 1 1.761-.8 7.066 7.066 0 0 1 1.966-.282c2.005 0 3.724.806 5.16 2.417.167.208.252.461.252.758 0 .36-.119.659-.355.895a1.214 1.214 0 0 1-.896.355c-.256 0-.475-.072-.655-.216-.18-.145-.355-.3-.523-.47-.818-.817-1.812-1.226-2.983-1.226-1.154 0-2.076.353-2.765 1.058-.129.129-.193.305-.193.53a.45.45 0 0 0 .313.456l5.628 1.852c.785.305 1.314.602 1.587.89h-.012c.61.617.914 1.343.914 2.177 0 .617-.163 1.17-.487 1.66a4.511 4.511 0 0 1-1.269 1.256 6.155 6.155 0 0 1-1.756.8 7.144 7.144 0 0 1-1.96.276c-2.02 0-3.74-.798-5.158-2.393a1.261 1.261 0 0 1-.265-.782c0-.36.118-.659.355-.895.236-.237.535-.355.896-.355.264 0 .489.078.673.234.185.157.353.307.505.451.818.818 1.816 1.227 2.994 1.227 1.147 0 2.069-.361 2.766-1.082a.72.72 0 0 0 .18-.493c0-.225-.108-.381-.324-.47l-5.616-1.851zm11.471-7.058h.565v-4.521c0-.345.122-.64.367-.884.244-.245.543-.367.896-.367.345 0 .64.122.884.367.244.244.366.539.366.884v4.521h1.504c.344 0 .637.122.877.367.24.244.361.539.361.884 0 .352-.12.651-.36.895-.241.245-.534.367-.878.367h-1.504v6.049c0 1.595.802 2.393 2.405 2.393.345 0 .638.122.878.367.24.244.361.539.361.883 0 .353-.12.652-.36.896-.241.245-.534.367-.879.367-3.278 0-4.918-1.635-4.918-4.906v-6.049h-.565a1.19 1.19 0 0 1-.872-.367 1.219 1.219 0 0 1-.367-.895c0-.345.123-.64.367-.884a1.19 1.19 0 0 1 .872-.367zm10.907 1.25v.241a6.89 6.89 0 0 1 1.96-1.106 6.564 6.564 0 0 1 2.26-.385c.353 0 .732.024 1.137.072.405.048.777.134 1.118.259.34.124.623.294.848.51.224.217.337.498.337.843 0 .176-.034.34-.103.493a1.395 1.395 0 0 1-.27.402 1.184 1.184 0 0 1-.397.27 1.257 1.257 0 0 1-.493.097c-.152 0-.329-.044-.53-.132-.504-.2-1.053-.3-1.646-.3-.586 0-1.135.11-1.648.33-.513.22-.96.521-1.34.902-.382.38-.682.828-.903 1.34a4.128 4.128 0 0 0-.33 1.648v5.483c0 .345-.123.64-.367.884-.245.245-.54.367-.884.367-.353 0-.651-.122-.896-.367a1.205 1.205 0 0 1-.367-.884V88.023c0-.345.123-.64.367-.884.245-.245.543-.367.896-.367.345 0 .64.122.884.367.244.244.367.539.367.884zm20.358 12.218c-.36 0-.657-.12-.89-.36a1.26 1.26 0 0 1-.36-.879 5.592 5.592 0 0 1-1.756.944 6.59 6.59 0 0 1-2.008.295 6.001 6.001 0 0 1-2.43-.499 6.438 6.438 0 0 1-1.996-1.353 6.438 6.438 0 0 1-1.352-1.996 6.001 6.001 0 0 1-.5-2.429v-5.94c0-.345.123-.64.367-.884.245-.245.543-.367.896-.367.345 0 .64.122.884.367.245.244.367.539.367.884v5.94c0 .521.098 1.01.294 1.467.197.457.465.856.806 1.197.34.34.74.609 1.197.805.457.197.946.295 1.467.295.513 0 .998-.098 1.455-.295a3.813 3.813 0 0 0 2.014-2.008c.196-.453.294-.94.294-1.461v-5.94c0-.345.123-.64.367-.884.245-.245.543-.367.896-.367.345 0 .64.122.884.367.244.244.367.539.367.884v10.966c0 .345-.123.64-.367.884a1.219 1.219 0 0 1-.896.367zm14.105-6.734c0-.577-.11-1.12-.33-1.63a4.279 4.279 0 0 0-2.243-2.255 4.065 4.065 0 0 0-1.647-.336c-.594 0-1.147.112-1.66.337a4.257 4.257 0 0 0-1.335.908c-.376.38-.675.828-.895 1.34a4.098 4.098 0 0 0-.331 1.636c0 .577.11 1.122.33 1.635.221.513.52.96.896 1.341.377.381.822.684 1.335.908a4.094 4.094 0 0 0 1.66.337c.585 0 1.134-.112 1.647-.337a4.279 4.279 0 0 0 2.243-2.255c.22-.509.33-1.052.33-1.629zm-4.22-6.734c1.595 0 3.002.493 4.22 1.48V82.25c0-.361.119-.66.355-.896.237-.237.535-.355.896-.355.353 0 .651.118.896.355.244.236.367.535.367.896v11.255c0 1.876-.658 3.463-1.972 4.762-1.331 1.315-2.919 1.972-4.762 1.972-1.86 0-3.448-.657-4.762-1.972-1.315-1.315-1.972-2.902-1.972-4.762 0-1.86.657-3.447 1.972-4.762 1.314-1.315 2.902-1.972 4.762-1.972zm19.444 5.483a4.03 4.03 0 0 0-.607-1.208 4.321 4.321 0 0 0-2.116-1.545 4.194 4.194 0 0 0-2.664 0c-.433.144-.83.346-1.19.607-.361.26-.674.573-.939.938a3.895 3.895 0 0 0-.589 1.208h8.105zm-.541 4.197c.36 0 .66.118.896.355.236.236.355.535.355.896 0 .352-.12.653-.361.902-1.243 1.09-2.71 1.635-4.401 1.635-1.86 0-3.448-.657-4.762-1.972-1.315-1.315-1.972-2.902-1.972-4.762 0-1.86.657-3.447 1.972-4.762 1.314-1.315 2.902-1.972 4.762-1.972 1.843 0 3.43.657 4.762 1.972a6.54 6.54 0 0 1 1.479 2.17c.328.798.493 1.662.493 2.592 0 .36-.123.66-.367.896a1.24 1.24 0 0 1-.896.355H66.45c.137.44.337.843.601 1.208.265.365.576.678.932.938.357.26.75.463 1.179.607.429.145.876.217 1.34.217.53 0 1.015-.08 1.456-.24.44-.161.85-.402 1.226-.722.24-.2.517-.305.83-.313zm5.026 2.537V82.263c0-.353.119-.652.355-.896.237-.245.535-.367.896-.367.36 0 .66.122.896.367.236.244.355.543.355.896v15.464h.577c.345 0 .64.122.884.367.244.244.366.543.366.895 0 .345-.122.64-.366.884-.245.245-.54.367-.884.367h-1.84c-.345 0-.637-.122-.878-.367-.24-.244-.36-.539-.36-.884z"/></g></svg>