<svg xmlns="http://www.w3.org/2000/svg" width="189" height="41" xmlns:xlink="http://www.w3.org/1999/xlink"><defs><ellipse id="a" cx="20.115" cy="19.894" rx="20.115" ry="19.894"/></defs><g fill="none" fill-rule="evenodd"><g transform="translate(.59 .606)"><mask id="b" fill="#fff"><use xlink:href="#a"/></mask><path fill="#FFDA5C" d="M22.742-.048c9.927 1.208 17.71 9.827 17.573 19.963C40.165 31.141 31.151 40 19.99 39.891 8.687 39.78-.364 30.678-.193 19.592-.028 8.888 8.245.508 18.951-.15c.402-.077.809-.141 1.221-.192 1.206-.15 2.43-.153 3.647-.223l.04.446c-.375.015-.747.04-1.117.072zm0 0a19.774 19.774 0 0 0-2.125-.143 22.24 22.24 0 0 0-1.666.04C6.537 2.219-.715 16.556 6.137 27.509c5.564 8.895 17.59 10.78 25.004 3.868 6.755-6.295 5.87-16.925-1.787-21.453-6.155-3.641-13.968-1.027-16.11 5.39-1.95 5.842 2.31 11.522 8.161 10.879 2.847-.313 5.065-2.77 4.913-5.442-.112-1.966-1.632-3.511-3.325-3.248-.517.08-1.109.47-1.4.895-.16.235.147.897.394 1.267.707 1.057.505 1.844-.68 2.325-1.602.65-3.637-.378-4.286-2.25-.705-2.035-.306-3.926 1.094-5.559 2.899-3.383 8.756-3.155 11.98.438 4.646 5.179 2.722 13.734-3.827 17.013-6.551 3.28-14.702.91-18.624-5.419-5.01-8.083-1.82-19.12 6.883-23.81a21.057 21.057 0 0 1 8.215-2.451z" mask="url(#b)"/></g><path fill="#534227" d="M57.087 21.91c-.935-.358-1.59-.726-1.969-1.103h.015c-.755-.766-1.133-1.665-1.133-2.7 0-.755.201-1.438.604-2.05a5.466 5.466 0 0 1 1.573-1.558 7.894 7.894 0 0 1 2.184-.991 8.761 8.761 0 0 1 2.438-.35c2.486 0 4.618.998 6.397 2.996.209.259.313.572.313.94 0 .447-.146.817-.44 1.11-.293.294-.663.44-1.11.44a1.26 1.26 0 0 1-.813-.268 7.872 7.872 0 0 1-.649-.581c-1.014-1.014-2.246-1.521-3.698-1.521-1.431 0-2.574.437-3.43 1.312-.158.159-.238.378-.238.656s.13.467.388.567l6.978 2.296c.975.378 1.63.745 1.969 1.103h-.015c.755.766 1.133 1.665 1.133 2.7 0 .765-.201 1.45-.604 2.057a5.594 5.594 0 0 1-1.573 1.558 7.633 7.633 0 0 1-2.177.992 8.86 8.86 0 0 1-2.43.343c-2.506 0-4.638-.99-6.397-2.968a1.564 1.564 0 0 1-.328-.969c0-.447.146-.818.44-1.11.293-.294.663-.44 1.11-.44.328 0 .607.096.835.29.229.194.438.38.627.56 1.014 1.013 2.251 1.52 3.712 1.52 1.422 0 2.565-.447 3.43-1.342a.892.892 0 0 0 .224-.611c0-.278-.135-.472-.403-.582l-6.963-2.296zm14.225-8.753h.7V7.551c0-.428.152-.793.455-1.096A1.511 1.511 0 0 1 73.578 6c.428 0 .793.152 1.096.455.303.303.455.668.455 1.096v5.606h1.864c.427 0 .79.152 1.088.455.299.303.448.669.448 1.096 0 .437-.15.808-.448 1.11a1.47 1.47 0 0 1-1.088.456h-1.864v7.5c0 1.978.994 2.967 2.982 2.967.428 0 .79.152 1.089.455.298.303.447.669.447 1.096 0 .437-.15.808-.447 1.11a1.47 1.47 0 0 1-1.089.456c-4.066 0-6.098-2.028-6.098-6.084v-7.5h-.701c-.418 0-.778-.152-1.081-.455a1.511 1.511 0 0 1-.455-1.111c0-.427.151-.793.455-1.096a1.477 1.477 0 0 1 1.08-.455zm13.524 1.551v.298a8.544 8.544 0 0 1 2.43-1.372 8.14 8.14 0 0 1 2.804-.477c.437 0 .907.03 1.409.09s.964.166 1.387.32c.422.154.772.366 1.05.634.28.268.418.616.418 1.044 0 .219-.042.422-.126.611a1.73 1.73 0 0 1-.336.5c-.14.144-.303.256-.492.335a1.56 1.56 0 0 1-.611.12c-.19 0-.408-.055-.656-.165a5.489 5.489 0 0 0-2.043-.372c-.726 0-1.407.136-2.043.41a5.265 5.265 0 0 0-1.663 1.118 5.265 5.265 0 0 0-1.118 1.663 5.119 5.119 0 0 0-.41 2.042v6.8c0 .427-.152.793-.455 1.096a1.494 1.494 0 0 1-1.096.455c-.437 0-.807-.152-1.11-.455a1.494 1.494 0 0 1-.455-1.096V14.708c0-.427.151-.793.454-1.096a1.511 1.511 0 0 1 1.111-.455c.428 0 .793.152 1.096.455.303.303.455.669.455 1.096zm25.244 15.15c-.447 0-.815-.15-1.103-.448a1.563 1.563 0 0 1-.447-1.088 6.934 6.934 0 0 1-2.177 1.17 8.172 8.172 0 0 1-2.49.366 7.442 7.442 0 0 1-3.013-.62 7.984 7.984 0 0 1-2.475-1.677 7.984 7.984 0 0 1-1.677-2.475 7.442 7.442 0 0 1-.62-3.012v-7.366c0-.427.152-.793.456-1.096a1.511 1.511 0 0 1 1.11-.455c.428 0 .793.152 1.097.455.303.303.454.669.454 1.096v7.366c0 .646.122 1.253.366 1.82a4.7 4.7 0 0 0 .999 1.483 4.7 4.7 0 0 0 1.483.999 4.557 4.557 0 0 0 1.82.365 4.52 4.52 0 0 0 1.804-.365 4.728 4.728 0 0 0 2.497-2.49 4.504 4.504 0 0 0 .366-1.812v-7.366c0-.427.151-.793.454-1.096a1.511 1.511 0 0 1 1.111-.455c.428 0 .793.152 1.096.455.303.303.455.669.455 1.096v13.599c0 .427-.152.793-.455 1.096a1.511 1.511 0 0 1-1.11.455zm17.49-8.35c0-.716-.136-1.39-.41-2.021a5.305 5.305 0 0 0-2.78-2.796 5.04 5.04 0 0 0-2.043-.417c-.735 0-1.421.139-2.058.417a5.278 5.278 0 0 0-1.655 1.126 5.329 5.329 0 0 0-1.11 1.663 5.082 5.082 0 0 0-.41 2.027c0 .716.136 1.392.41 2.028.273.637.643 1.19 1.11 1.663a5.278 5.278 0 0 0 1.655 1.126 5.077 5.077 0 0 0 2.058.417 5.04 5.04 0 0 0 2.043-.417 5.305 5.305 0 0 0 2.78-2.796c.274-.631.41-1.305.41-2.02zm-5.233-8.35c1.978 0 3.723.61 5.234 1.833v-7.44c0-.448.147-.818.44-1.111.293-.293.663-.44 1.11-.44.438 0 .808.147 1.112.44.303.293.454.663.454 1.11v13.957c0 2.327-.815 4.295-2.445 5.905-1.65 1.63-3.618 2.446-5.905 2.446-2.306 0-4.274-.816-5.905-2.446-1.63-1.63-2.445-3.598-2.445-5.905 0-2.306.815-4.274 2.445-5.904s3.599-2.446 5.905-2.446zm24.111 6.799a4.997 4.997 0 0 0-.753-1.499 5.358 5.358 0 0 0-2.624-1.916 5.2 5.2 0 0 0-3.303 0 5.446 5.446 0 0 0-1.476.753c-.447.323-.835.71-1.163 1.163a4.83 4.83 0 0 0-.73 1.499h10.05zm-.67 5.204c.447 0 .817.146 1.11.44.293.293.44.663.44 1.11 0 .438-.15.81-.447 1.119-1.541 1.352-3.36 2.028-5.458 2.028-2.306 0-4.274-.816-5.904-2.446-1.63-1.63-2.446-3.598-2.446-5.905 0-2.306.815-4.274 2.446-5.904 1.63-1.63 3.598-2.446 5.904-2.446 2.287 0 4.255.815 5.905 2.446.815.805 1.427 1.702 1.834 2.691.408.99.611 2.06.611 3.213 0 .448-.151.818-.454 1.111-.304.294-.674.44-1.111.44h-11.81c.17.547.418 1.046.746 1.499.328.452.713.84 1.155 1.163.443.323.93.574 1.462.753a5.179 5.179 0 0 0 1.662.268c.656 0 1.258-.1 1.805-.298a4.942 4.942 0 0 0 1.52-.895 1.63 1.63 0 0 1 1.03-.387zm6.232 3.146V7.566c0-.438.147-.808.44-1.111.293-.303.664-.455 1.11-.455.448 0 .818.152 1.112.455.293.303.44.673.44 1.11v19.176h.715c.428 0 .793.152 1.096.455.303.303.455.673.455 1.11 0 .428-.152.794-.455 1.097a1.494 1.494 0 0 1-1.096.455h-2.281a1.47 1.47 0 0 1-1.089-.455 1.506 1.506 0 0 1-.447-1.096zm11.228-.567c0 .587-.206 1.086-.619 1.499a2.041 2.041 0 0 1-1.498.619 2.041 2.041 0 0 1-1.499-.62 2.041 2.041 0 0 1-.619-1.498c0-.586.207-1.086.62-1.498a2.041 2.041 0 0 1 1.498-.62c.586 0 1.086.207 1.498.62.413.412.62.912.62 1.498zm9.826-17.55c0 .507-.178.94-.536 1.297-.358.358-.79.537-1.298.537-.507 0-.939-.179-1.297-.537a1.767 1.767 0 0 1-.537-1.297c0-.507.18-.94.537-1.297.358-.358.79-.537 1.297-.537.507 0 .94.179 1.298.537.358.358.536.79.536 1.297zm-.283 4.533v15.06a6.88 6.88 0 0 1-.574 2.788 7.42 7.42 0 0 1-1.558 2.297 7.42 7.42 0 0 1-2.296 1.558 6.88 6.88 0 0 1-2.789.574c-.447 0-.817-.15-1.11-.447-.294-.299-.44-.671-.44-1.119 0-.447.146-.817.44-1.11.293-.294.663-.44 1.11-.44.567 0 1.099-.107 1.596-.321a4.137 4.137 0 0 0 1.304-.88c.373-.373.669-.807.888-1.304a3.917 3.917 0 0 0 .328-1.596v-15.06c0-.437.151-.808.454-1.11a1.494 1.494 0 0 1 1.096-.456c.428 0 .793.152 1.096.455.304.303.455.674.455 1.11zm5.323 7.187c-.934-.358-1.59-.726-1.968-1.103h.015c-.755-.766-1.133-1.665-1.133-2.7 0-.755.201-1.438.604-2.05a5.466 5.466 0 0 1 1.573-1.558 7.894 7.894 0 0 1 2.184-.991 8.761 8.761 0 0 1 2.438-.35c2.485 0 4.618.998 6.397 2.996.209.259.313.572.313.94 0 .447-.146.817-.44 1.11-.293.294-.663.44-1.11.44a1.26 1.26 0 0 1-.813-.268 7.872 7.872 0 0 1-.649-.581c-1.014-1.014-2.246-1.521-3.698-1.521-1.431 0-2.574.437-3.43 1.312-.158.159-.238.378-.238.656s.13.467.388.567l6.978 2.296c.974.378 1.63.745 1.968 1.103h-.015c.756.766 1.134 1.665 1.134 2.7 0 .765-.202 1.45-.604 2.057a5.594 5.594 0 0 1-1.573 1.558 7.633 7.633 0 0 1-2.177.992 8.86 8.86 0 0 1-2.43.343c-2.506 0-4.638-.99-6.398-2.968a1.564 1.564 0 0 1-.328-.969c0-.447.147-.818.44-1.11.293-.294.664-.44 1.111-.44.328 0 .606.096.835.29.229.194.438.38.626.56 1.014 1.013 2.252 1.52 3.713 1.52 1.422 0 2.565-.447 3.43-1.342a.892.892 0 0 0 .223-.611c0-.278-.134-.472-.402-.582l-6.964-2.296z"/></g></svg>